<mxfile host="app.diagrams.net" modified="2024-05-13T07:53:10.021Z" agent="Mozilla/5.0 (Windows NT 10.0; Win64; x64) AppleWebKit/537.36 (KHTML, like Gecko) Chrome/124.0.0.0 Safari/537.36 Edg/124.0.0.0" etag="w85Z2KuYs00A0w3-nXCp" version="24.4.0" type="github">
  <diagram name="Page-1" id="PQVd2WFTa-xNde-EntDw">
    <mxGraphModel dx="1884" dy="501" grid="1" gridSize="10" guides="1" tooltips="1" connect="1" arrows="1" fold="1" page="1" pageScale="1" pageWidth="850" pageHeight="1400" math="0" shadow="0">
      <root>
        <mxCell id="0" />
        <mxCell id="1" parent="0" />
        <mxCell id="oKRnaR6eNqEM6-iqQ-AG-1" value="" style="rounded=0;whiteSpace=wrap;html=1;shadow=0;glass=0;horizontal=1;strokeWidth=3;perimeterSpacing=4;opacity=30;labelBackgroundColor=none;fillColor=#B2C9AB;strokeColor=#788AA3;fontColor=#46495D;align=center;" vertex="1" parent="1">
          <mxGeometry y="80" width="160" height="340" as="geometry" />
        </mxCell>
        <mxCell id="oKRnaR6eNqEM6-iqQ-AG-2" value="" style="rounded=0;whiteSpace=wrap;html=1;labelBackgroundColor=none;fillColor=#B2C9AB;strokeColor=#788AA3;fontColor=#46495D;" vertex="1" parent="1">
          <mxGeometry x="130" width="720" height="510" as="geometry" />
        </mxCell>
        <mxCell id="oKRnaR6eNqEM6-iqQ-AG-4" value="&lt;b&gt;&lt;font style=&quot;font-size: 20px;&quot;&gt;AWS&lt;/font&gt;&lt;/b&gt;" style="text;html=1;align=center;verticalAlign=middle;whiteSpace=wrap;rounded=0;" vertex="1" parent="1">
          <mxGeometry x="455" width="60" height="30" as="geometry" />
        </mxCell>
        <mxCell id="oKRnaR6eNqEM6-iqQ-AG-5" value="&lt;b style=&quot;color: rgb(70, 73, 93);&quot;&gt;Data Source&lt;/b&gt;" style="text;html=1;align=center;verticalAlign=middle;whiteSpace=wrap;rounded=0;" vertex="1" parent="1">
          <mxGeometry x="10" y="80" width="100" height="30" as="geometry" />
        </mxCell>
        <mxCell id="oKRnaR6eNqEM6-iqQ-AG-10" value="" style="edgeStyle=orthogonalEdgeStyle;rounded=0;orthogonalLoop=1;jettySize=auto;html=1;entryX=0;entryY=0.5;entryDx=0;entryDy=0;entryPerimeter=0;" edge="1" parent="1" source="oKRnaR6eNqEM6-iqQ-AG-6" target="oKRnaR6eNqEM6-iqQ-AG-52">
          <mxGeometry relative="1" as="geometry">
            <mxPoint x="174" y="199" as="targetPoint" />
          </mxGeometry>
        </mxCell>
        <mxCell id="oKRnaR6eNqEM6-iqQ-AG-6" value="" style="sketch=0;outlineConnect=0;fontColor=#232F3E;gradientColor=none;fillColor=#C925D1;strokeColor=none;dashed=0;verticalLabelPosition=bottom;verticalAlign=top;align=center;html=1;fontSize=12;fontStyle=0;aspect=fixed;pointerEvents=1;shape=mxgraph.aws4.rds_postgresql_instance;" vertex="1" parent="1">
          <mxGeometry x="21" y="120" width="78" height="78" as="geometry" />
        </mxCell>
        <mxCell id="oKRnaR6eNqEM6-iqQ-AG-11" value="" style="edgeStyle=orthogonalEdgeStyle;rounded=0;orthogonalLoop=1;jettySize=auto;html=1;" edge="1" parent="1" source="oKRnaR6eNqEM6-iqQ-AG-7" target="oKRnaR6eNqEM6-iqQ-AG-52">
          <mxGeometry relative="1" as="geometry">
            <mxPoint x="174" y="199" as="targetPoint" />
          </mxGeometry>
        </mxCell>
        <mxCell id="oKRnaR6eNqEM6-iqQ-AG-7" value="" style="sketch=0;outlineConnect=0;fontColor=#232F3E;gradientColor=none;fillColor=#C925D1;strokeColor=none;dashed=0;verticalLabelPosition=bottom;verticalAlign=top;align=center;html=1;fontSize=12;fontStyle=0;aspect=fixed;pointerEvents=1;shape=mxgraph.aws4.rds_sql_server_instance;" vertex="1" parent="1">
          <mxGeometry x="21" y="216" width="78" height="78" as="geometry" />
        </mxCell>
        <mxCell id="oKRnaR6eNqEM6-iqQ-AG-15" value="" style="edgeStyle=orthogonalEdgeStyle;rounded=0;orthogonalLoop=1;jettySize=auto;html=1;" edge="1" parent="1" source="oKRnaR6eNqEM6-iqQ-AG-8" target="oKRnaR6eNqEM6-iqQ-AG-14">
          <mxGeometry relative="1" as="geometry" />
        </mxCell>
        <mxCell id="oKRnaR6eNqEM6-iqQ-AG-8" value="" style="sketch=0;pointerEvents=1;shadow=0;dashed=0;html=1;strokeColor=none;fillColor=#505050;labelPosition=center;verticalLabelPosition=bottom;verticalAlign=top;outlineConnect=0;align=center;shape=mxgraph.office.services.excel_services;" vertex="1" parent="1">
          <mxGeometry x="30" y="320" width="60" height="49" as="geometry" />
        </mxCell>
        <mxCell id="oKRnaR6eNqEM6-iqQ-AG-13" value="" style="edgeStyle=orthogonalEdgeStyle;rounded=0;orthogonalLoop=1;jettySize=auto;html=1;" edge="1" parent="1" target="oKRnaR6eNqEM6-iqQ-AG-12">
          <mxGeometry relative="1" as="geometry">
            <mxPoint x="246" y="199" as="sourcePoint" />
          </mxGeometry>
        </mxCell>
        <mxCell id="oKRnaR6eNqEM6-iqQ-AG-12" value="" style="sketch=0;points=[[0,0,0],[0.25,0,0],[0.5,0,0],[0.75,0,0],[1,0,0],[0,1,0],[0.25,1,0],[0.5,1,0],[0.75,1,0],[1,1,0],[0,0.25,0],[0,0.5,0],[0,0.75,0],[1,0.25,0],[1,0.5,0],[1,0.75,0]];outlineConnect=0;fontColor=#232F3E;fillColor=#ED7100;strokeColor=#ffffff;dashed=0;verticalLabelPosition=bottom;verticalAlign=top;align=center;html=1;fontSize=12;fontStyle=0;aspect=fixed;shape=mxgraph.aws4.resourceIcon;resIcon=mxgraph.aws4.ec2;" vertex="1" parent="1">
          <mxGeometry x="309" y="160" width="78" height="78" as="geometry" />
        </mxCell>
        <mxCell id="oKRnaR6eNqEM6-iqQ-AG-22" value="" style="edgeStyle=orthogonalEdgeStyle;rounded=0;orthogonalLoop=1;jettySize=auto;html=1;" edge="1" parent="1" source="oKRnaR6eNqEM6-iqQ-AG-16" target="oKRnaR6eNqEM6-iqQ-AG-21">
          <mxGeometry relative="1" as="geometry" />
        </mxCell>
        <mxCell id="oKRnaR6eNqEM6-iqQ-AG-16" value="VPC" style="sketch=0;outlineConnect=0;gradientColor=none;html=1;whiteSpace=wrap;fontSize=12;fontStyle=0;shape=mxgraph.aws4.group;grIcon=mxgraph.aws4.group_vpc;strokeColor=#879196;fillColor=none;verticalAlign=top;align=left;spacingLeft=30;fontColor=#879196;dashed=0;" vertex="1" parent="1">
          <mxGeometry x="159" y="105" width="250" height="150" as="geometry" />
        </mxCell>
        <mxCell id="oKRnaR6eNqEM6-iqQ-AG-14" value="" style="sketch=0;outlineConnect=0;fontColor=#232F3E;gradientColor=none;fillColor=#7AA116;strokeColor=none;dashed=0;verticalLabelPosition=bottom;verticalAlign=top;align=center;html=1;fontSize=12;fontStyle=0;aspect=fixed;pointerEvents=1;shape=mxgraph.aws4.bucket_with_objects;" vertex="1" parent="1">
          <mxGeometry x="246.5" y="305.5" width="75" height="78" as="geometry" />
        </mxCell>
        <mxCell id="oKRnaR6eNqEM6-iqQ-AG-19" value="" style="edgeStyle=orthogonalEdgeStyle;html=1;endArrow=block;elbow=vertical;startArrow=block;startFill=1;endFill=1;strokeColor=#545B64;rounded=0;" edge="1" parent="1" source="oKRnaR6eNqEM6-iqQ-AG-14" target="oKRnaR6eNqEM6-iqQ-AG-16">
          <mxGeometry width="100" relative="1" as="geometry">
            <mxPoint x="420" y="200" as="sourcePoint" />
            <mxPoint x="520" y="200" as="targetPoint" />
          </mxGeometry>
        </mxCell>
        <mxCell id="oKRnaR6eNqEM6-iqQ-AG-32" value="" style="edgeStyle=orthogonalEdgeStyle;rounded=0;orthogonalLoop=1;jettySize=auto;html=1;" edge="1" parent="1" source="oKRnaR6eNqEM6-iqQ-AG-21" target="oKRnaR6eNqEM6-iqQ-AG-27">
          <mxGeometry relative="1" as="geometry" />
        </mxCell>
        <mxCell id="oKRnaR6eNqEM6-iqQ-AG-21" value="" style="sketch=0;outlineConnect=0;fontColor=#232F3E;gradientColor=none;fillColor=#8C4FFF;strokeColor=default;dashed=0;verticalLabelPosition=bottom;verticalAlign=top;align=center;html=1;fontSize=12;fontStyle=0;aspect=fixed;pointerEvents=1;shape=mxgraph.aws4.opensearch_ingestion;portConstraintRotation=0;strokeWidth=9;" vertex="1" parent="1">
          <mxGeometry x="461" y="141" width="78" height="78" as="geometry" />
        </mxCell>
        <mxCell id="oKRnaR6eNqEM6-iqQ-AG-23" value="" style="sketch=0;outlineConnect=0;fontColor=#232F3E;gradientColor=none;fillColor=#8C4FFF;strokeColor=none;dashed=0;verticalLabelPosition=bottom;verticalAlign=top;align=center;html=1;fontSize=12;fontStyle=0;aspect=fixed;pointerEvents=1;shape=mxgraph.aws4.opensearch_dashboards;" vertex="1" parent="1">
          <mxGeometry x="628" y="140" width="105.76" height="80" as="geometry" />
        </mxCell>
        <mxCell id="oKRnaR6eNqEM6-iqQ-AG-25" value="" style="sketch=0;points=[[0,0,0],[0.25,0,0],[0.5,0,0],[0.75,0,0],[1,0,0],[0,1,0],[0.25,1,0],[0.5,1,0],[0.75,1,0],[1,1,0],[0,0.25,0],[0,0.5,0],[0,0.75,0],[1,0.25,0],[1,0.5,0],[1,0.75,0]];outlineConnect=0;fontColor=#232F3E;fillColor=#DD344C;strokeColor=#ffffff;dashed=0;verticalLabelPosition=bottom;verticalAlign=top;align=center;html=1;fontSize=12;fontStyle=0;aspect=fixed;shape=mxgraph.aws4.resourceIcon;resIcon=mxgraph.aws4.cognito;" vertex="1" parent="1">
          <mxGeometry x="750" y="140" width="78" height="78" as="geometry" />
        </mxCell>
        <mxCell id="oKRnaR6eNqEM6-iqQ-AG-27" value="Dashboard Real Time" style="fillColor=none;strokeColor=#5A6C86;dashed=1;verticalAlign=top;fontStyle=0;fontColor=#5A6C86;whiteSpace=wrap;html=1;" vertex="1" parent="1">
          <mxGeometry x="615.88" y="105" width="224.12" height="149" as="geometry" />
        </mxCell>
        <mxCell id="oKRnaR6eNqEM6-iqQ-AG-28" value="" style="sketch=0;points=[[0,0,0],[0.25,0,0],[0.5,0,0],[0.75,0,0],[1,0,0],[0,1,0],[0.25,1,0],[0.5,1,0],[0.75,1,0],[1,1,0],[0,0.25,0],[0,0.5,0],[0,0.75,0],[1,0.25,0],[1,0.5,0],[1,0.75,0]];outlineConnect=0;fontColor=#232F3E;fillColor=#8C4FFF;strokeColor=#ffffff;dashed=0;verticalLabelPosition=bottom;verticalAlign=top;align=center;html=1;fontSize=12;fontStyle=0;aspect=fixed;shape=mxgraph.aws4.resourceIcon;resIcon=mxgraph.aws4.athena;" vertex="1" parent="1">
          <mxGeometry x="455" y="305.5" width="78" height="78" as="geometry" />
        </mxCell>
        <mxCell id="oKRnaR6eNqEM6-iqQ-AG-33" value="" style="edgeStyle=orthogonalEdgeStyle;htmDepartman barl=1;endArrow=open;elbow=vertical;startArrow=open;startFill=0;endFill=0;strokeColor=#545B64;rounded=0;entryX=0;entryY=0.5;entryDx=0;entryDy=0;entryPerimeter=0;" edge="1" parent="1" source="oKRnaR6eNqEM6-iqQ-AG-14" target="oKRnaR6eNqEM6-iqQ-AG-28">
          <mxGeometry width="100" relative="1" as="geometry">
            <mxPoint x="430" y="280" as="sourcePoint" />
            <mxPoint x="530" y="280" as="targetPoint" />
          </mxGeometry>
        </mxCell>
        <mxCell id="oKRnaR6eNqEM6-iqQ-AG-34" value="" style="sketch=0;points=[[0,0,0],[0.25,0,0],[0.5,0,0],[0.75,0,0],[1,0,0],[0,1,0],[0.25,1,0],[0.5,1,0],[0.75,1,0],[1,1,0],[0,0.25,0],[0,0.5,0],[0,0.75,0],[1,0.25,0],[1,0.5,0],[1,0.75,0]];outlineConnect=0;fontColor=#232F3E;fillColor=#8C4FFF;strokeColor=#ffffff;dashed=0;verticalLabelPosition=bottom;verticalAlign=top;align=center;html=1;fontSize=12;fontStyle=0;aspect=fixed;shape=mxgraph.aws4.resourceIcon;resIcon=mxgraph.aws4.quicksight;" vertex="1" parent="1">
          <mxGeometry x="689" y="280" width="78" height="78" as="geometry" />
        </mxCell>
        <mxCell id="oKRnaR6eNqEM6-iqQ-AG-38" value="" style="sketch=0;points=[[0,0,0],[0.25,0,0],[0.5,0,0],[0.75,0,0],[1,0,0],[0,1,0],[0.25,1,0],[0.5,1,0],[0.75,1,0],[1,1,0],[0,0.25,0],[0,0.5,0],[0,0.75,0],[1,0.25,0],[1,0.5,0],[1,0.75,0]];outlineConnect=0;fontColor=#232F3E;fillColor=#01A88D;strokeColor=#ffffff;dashed=0;verticalLabelPosition=bottom;verticalAlign=top;align=center;html=1;fontSize=12;fontStyle=0;aspect=fixed;shape=mxgraph.aws4.resourceIcon;resIcon=mxgraph.aws4.sagemaker;" vertex="1" parent="1">
          <mxGeometry x="689" y="390" width="78" height="78" as="geometry" />
        </mxCell>
        <mxCell id="oKRnaR6eNqEM6-iqQ-AG-39" value="" style="edgeStyle=orthogonalEdgeStyle;html=1;endArrow=block;elbow=vertical;startArrow=none;endFill=1;strokeColor=#545B64;rounded=0;exitX=1;exitY=0.5;exitDx=0;exitDy=0;exitPerimeter=0;" edge="1" parent="1" source="oKRnaR6eNqEM6-iqQ-AG-28" target="oKRnaR6eNqEM6-iqQ-AG-34">
          <mxGeometry width="100" relative="1" as="geometry">
            <mxPoint x="548" y="344" as="sourcePoint" />
            <mxPoint x="648" y="344" as="targetPoint" />
          </mxGeometry>
        </mxCell>
        <mxCell id="oKRnaR6eNqEM6-iqQ-AG-41" value="" style="edgeStyle=orthogonalEdgeStyle;html=1;endArrow=block;elbow=vertical;startArrow=none;endFill=1;strokeColor=#545B64;rounded=0;entryX=0;entryY=0.5;entryDx=0;entryDy=0;entryPerimeter=0;" edge="1" parent="1" source="oKRnaR6eNqEM6-iqQ-AG-28" target="oKRnaR6eNqEM6-iqQ-AG-38">
          <mxGeometry width="100" relative="1" as="geometry">
            <mxPoint x="430" y="280" as="sourcePoint" />
            <mxPoint x="530" y="280" as="targetPoint" />
          </mxGeometry>
        </mxCell>
        <mxCell id="oKRnaR6eNqEM6-iqQ-AG-42" value="Aurora" style="text;html=1;align=center;verticalAlign=middle;whiteSpace=wrap;rounded=0;" vertex="1" parent="1">
          <mxGeometry x="180" y="130" width="60" height="30" as="geometry" />
        </mxCell>
        <mxCell id="oKRnaR6eNqEM6-iqQ-AG-43" value="EC2" style="text;html=1;align=center;verticalAlign=middle;whiteSpace=wrap;rounded=0;" vertex="1" parent="1">
          <mxGeometry x="318" y="133" width="60" height="30" as="geometry" />
        </mxCell>
        <mxCell id="oKRnaR6eNqEM6-iqQ-AG-44" value="ETL" style="text;html=1;align=center;verticalAlign=middle;whiteSpace=wrap;rounded=0;" vertex="1" parent="1">
          <mxGeometry x="248" y="191" width="60" height="30" as="geometry" />
        </mxCell>
        <mxCell id="oKRnaR6eNqEM6-iqQ-AG-45" value="OpenSearch Ingestion" style="text;html=1;align=center;verticalAlign=middle;whiteSpace=wrap;rounded=0;" vertex="1" parent="1">
          <mxGeometry x="466" y="108" width="60" height="30" as="geometry" />
        </mxCell>
        <mxCell id="oKRnaR6eNqEM6-iqQ-AG-46" value="Dashboard OpenSearch" style="text;html=1;align=center;verticalAlign=middle;whiteSpace=wrap;rounded=0;" vertex="1" parent="1">
          <mxGeometry x="650.88" y="221" width="60" height="30" as="geometry" />
        </mxCell>
        <mxCell id="oKRnaR6eNqEM6-iqQ-AG-47" value="Cognito" style="text;html=1;align=center;verticalAlign=middle;whiteSpace=wrap;rounded=0;" vertex="1" parent="1">
          <mxGeometry x="759" y="209.5" width="60" height="30" as="geometry" />
        </mxCell>
        <mxCell id="oKRnaR6eNqEM6-iqQ-AG-48" value="Simple Storage Service" style="text;html=1;align=center;verticalAlign=middle;whiteSpace=wrap;rounded=0;" vertex="1" parent="1">
          <mxGeometry x="254" y="390" width="60" height="30" as="geometry" />
        </mxCell>
        <mxCell id="oKRnaR6eNqEM6-iqQ-AG-49" value="Athena" style="text;html=1;align=center;verticalAlign=middle;whiteSpace=wrap;rounded=0;" vertex="1" parent="1">
          <mxGeometry x="464" y="280" width="60" height="30" as="geometry" />
        </mxCell>
        <mxCell id="oKRnaR6eNqEM6-iqQ-AG-50" value="QuickSight" style="text;html=1;align=center;verticalAlign=middle;whiteSpace=wrap;rounded=0;" vertex="1" parent="1">
          <mxGeometry x="699" y="255" width="60" height="30" as="geometry" />
        </mxCell>
        <mxCell id="oKRnaR6eNqEM6-iqQ-AG-51" value="Sagemaker" style="text;html=1;align=center;verticalAlign=middle;whiteSpace=wrap;rounded=0;" vertex="1" parent="1">
          <mxGeometry x="680" y="369" width="90" height="30" as="geometry" />
        </mxCell>
        <mxCell id="oKRnaR6eNqEM6-iqQ-AG-52" value="" style="sketch=0;points=[[0,0,0],[0.25,0,0],[0.5,0,0],[0.75,0,0],[1,0,0],[0,1,0],[0.25,1,0],[0.5,1,0],[0.75,1,0],[1,1,0],[0,0.25,0],[0,0.5,0],[0,0.75,0],[1,0.25,0],[1,0.5,0],[1,0.75,0]];outlineConnect=0;fontColor=#232F3E;fillColor=#C925D1;strokeColor=#ffffff;dashed=0;verticalLabelPosition=bottom;verticalAlign=top;align=center;html=1;fontSize=12;fontStyle=0;aspect=fixed;shape=mxgraph.aws4.resourceIcon;resIcon=mxgraph.aws4.aurora;" vertex="1" parent="1">
          <mxGeometry x="176" y="160" width="78" height="78" as="geometry" />
        </mxCell>
      </root>
    </mxGraphModel>
  </diagram>
</mxfile>
